<svg xmlns="http://www.w3.org/2000/svg" width="800" height="600" viewBox="0 0 800 600" fill="none">
  <!-- Background Elements -->
  <circle cx="400" cy="300" r="250" fill="#F0F9FF" opacity="0.3"/>
  <circle cx="400" cy="300" r="200" fill="#E0F2FE" opacity="0.5"/>
  
  <!-- Team Members Group -->
  <g transform="translate(250, 150)">
    <!-- Central Person (Leader) -->
    <circle cx="150" cy="150" r="70" fill="#2563EB" opacity="0.2"/>
    <circle cx="150" cy="100" r="30" fill="#2563EB"/>
    <path d="M100 190 Q150 240 200 190" stroke="#2563EB" stroke-width="4" fill="none"/>
    <rect x="120" y="130" width="60" height="80" rx="20" fill="#2563EB"/>
    
    <!-- Person 1 (Left) -->
    <circle cx="50" cy="150" r="50" fill="#7C3AED" opacity="0.2"/>
    <circle cx="50" cy="120" r="20" fill="#7C3AED"/>
    <path d="M20 170 Q50 200 80 170" stroke="#7C3AED" stroke-width="3" fill="none"/>
    <rect x="30" y="140" width="40" height="50" rx="15" fill="#7C3AED"/>
    
    <!-- Person 2 (Right) -->
    <circle cx="250" cy="150" r="50" fill="#10B981" opacity="0.2"/>
    <circle cx="250" cy="120" r="20" fill="#10B981"/>
    <path d="M220 170 Q250 200 280 170" stroke="#10B981" stroke-width="3" fill="none"/>
    <rect x="230" y="140" width="40" height="50" rx="15" fill="#10B981"/>
    
    <!-- Person 3 (Top) -->
    <circle cx="150" cy="50" r="50" fill="#F59E0B" opacity="0.2"/>
    <circle cx="150" cy="20" r="20" fill="#F59E0B"/>
    <path d="M120 70 Q150 100 180 70" stroke="#F59E0B" stroke-width="3" fill="none"/>
    <rect x="130" y="40" width="40" height="50" rx="15" fill="#F59E0B"/>
    
    <!-- Person 4 (Bottom) -->
    <circle cx="150" cy="250" r="50" fill="#EF4444" opacity="0.2"/>
    <circle cx="150" cy="220" r="20" fill="#EF4444"/>
    <path d="M120 270 Q150 300 180 270" stroke="#EF4444" stroke-width="3" fill="none"/>
    <rect x="130" y="240" width="40" height="50" rx="15" fill="#EF4444"/>
    
    <!-- Connection Lines -->
    <line x1="80" y1="120" x2="120" y2="100" stroke="#94A3B8" stroke-width="2" stroke-dasharray="5,5"/>
    <line x1="180" y1="100" x2="230" y2="120" stroke="#94A3B8" stroke-width="2" stroke-dasharray="5,5"/>
    <line x1="150" y1="70" x2="150" y2="100" stroke="#94A3B8" stroke-width="2" stroke-dasharray="5,5"/>
    <line x1="150" y1="210" x2="150" y2="180" stroke="#94A3B8" stroke-width="2" stroke-dasharray="5,5"/>
  </g>
  
  <!-- Healthcare Symbols -->
  <g transform="translate(100, 100)">
    <!-- Medical Cross -->
    <rect x="0" y="15" width="30" height="10" rx="2" fill="#2563EB" opacity="0.7"/>
    <rect x="10" y="5" width="10" height="30" rx="2" fill="#2563EB" opacity="0.7"/>
  </g>
  
  <g transform="translate(650, 100)">
    <!-- Stethoscope -->
    <circle cx="20" cy="20" r="10" fill="#10B981" opacity="0.7"/>
    <path d="M20 30 Q20 50 40 50 L50 50" stroke="#10B981" stroke-width="4" fill="none"/>
    <path d="M50 50 Q60 50 60 60 L60 70" stroke="#10B981" stroke-width="4" fill="none"/>
  </g>
  
  <g transform="translate(100, 450)">
    <!-- Pill -->
    <rect x="0" y="0" width="30" height="15" rx="7.5" fill="#7C3AED" opacity="0.7"/>
  </g>
  
  <g transform="translate(650, 450)">
    <!-- Heartbeat Line -->
    <path d="M0 20 L10 20 L15 5 L25 35 L35 20 L60 20" stroke="#EF4444" stroke-width="3" fill="none"/>
  </g>
  
  <!-- Financial Elements -->
  <g transform="translate(150, 350)">
    <!-- Dollar Sign -->
    <text x="0" y="30" font-family="Arial" font-size="40" font-weight="bold" fill="#10B981">$</text>
  </g>
  
  <g transform="translate(600, 350)">
    <!-- Percentage Sign -->
    <text x="0" y="30" font-family="Arial" font-size="40" font-weight="bold" fill="#F59E0B">%</text>
  </g>
  
  <!-- Document Icons -->
  <g transform="translate(150, 200)">
    <!-- Document with Check -->
    <rect x="0" y="0" width="40" height="50" rx="3" fill="white" stroke="#E5E7EB" stroke-width="2"/>
    <line x1="10" y1="10" x2="30" y2="10" stroke="#9CA3AF" stroke-width="2"/>
    <line x1="10" y1="20" x2="30" y2="20" stroke="#9CA3AF" stroke-width="2"/>
    <line x1="10" y1="30" x2="20" y2="30" stroke="#9CA3AF" stroke-width="2"/>
    <path d="M15 40 L20 45 L30 35" stroke="#10B981" stroke-width="2" fill="none"/>
  </g>
  
  <g transform="translate(600, 200)">
    <!-- Document with Graph -->
    <rect x="0" y="0" width="40" height="50" rx="3" fill="white" stroke="#E5E7EB" stroke-width="2"/>
    <line x1="10" y1="10" x2="30" y2="10" stroke="#9CA3AF" stroke-width="2"/>
    <line x1="10" y1="20" x2="30" y2="20" stroke="#9CA3AF" stroke-width="2"/>
    <rect x="10" y="30" width="5" height="10" fill="#2563EB"/>
    <rect x="20" y="25" width="5" height="15" fill="#2563EB"/>
    <rect x="30" y="35" width="5" height="5" fill="#2563EB"/>
  </g>
  
  <!-- Decorative Elements -->
  <circle cx="100" cy="100" r="10" fill="#2563EB" opacity="0.3"/>
  <circle cx="700" cy="100" r="15" fill="#7C3AED" opacity="0.3"/>
  <circle cx="100" cy="500" r="12" fill="#10B981" opacity="0.3"/>
  <circle cx="700" cy="500" r="8" fill="#F59E0B" opacity="0.3"/>
  
  <!-- Abstract Connection Lines -->
  <path d="M150 100 Q250 50 350 100" stroke="#E5E7EB" stroke-width="2" stroke-dasharray="5,5" fill="none"/>
  <path d="M450 100 Q550 50 650 100" stroke="#E5E7EB" stroke-width="2" stroke-dasharray="5,5" fill="none"/>
  <path d="M150 500 Q250 550 350 500" stroke="#E5E7EB" stroke-width="2" stroke-dasharray="5,5" fill="none"/>
  <path d="M450 500 Q550 550 650 500" stroke="#E5E7EB" stroke-width="2" stroke-dasharray="5,5" fill="none"/>
</svg>