<svg xmlns="http://www.w3.org/2000/svg" width="800" height="600" viewBox="0 0 800 600" fill="none">
  <!-- Background Elements -->
  <circle cx="400" cy="300" r="250" fill="#EBF5FF" opacity="0.5"/>
  <circle cx="400" cy="300" r="200" fill="#DBEAFE" opacity="0.7"/>
  
  <!-- Abstract Data Visualization -->
  <path d="M200 400 Q300 200 400 350 Q500 100 600 300" stroke="#2563EB" stroke-width="4" fill="none" opacity="0.8"/>
  <path d="M200 350 Q300 250 400 400 Q500 200 600 350" stroke="#7C3AED" stroke-width="4" fill="none" opacity="0.6"/>
  
  <!-- Dashboard Frame -->
  <rect x="250" y="150" width="300" height="200" rx="10" fill="white" stroke="#E5E7EB" stroke-width="2"/>
  
  <!-- Dashboard Header -->
  <rect x="250" y="150" width="300" height="40" rx="10" fill="#2563EB"/>
  <rect x="250" y="150" width="300" height="10" rx="10" fill="#1D4ED8"/>
  
  <!-- Dashboard Controls -->
  <circle cx="270" cy="170" r="5" fill="#FCA5A5"/>
  <circle cx="290" cy="170" r="5" fill="#FCD34D"/>
  <circle cx="310" cy="170" r="5" fill="#6EE7B7"/>
  
  <!-- Dashboard Title -->
  <text x="400" y="175" font-family="Arial" font-size="14" fill="white" text-anchor="middle">Revenue Cycle Dashboard</text>
  
  <!-- Dashboard Content -->
  <rect x="260" y="200" width="130" height="80" rx="5" fill="#F3F4F6"/>
  <rect x="410" y="200" width="130" height="80" rx="5" fill="#F3F4F6"/>
  <rect x="260" y="290" width="280" height="50" rx="5" fill="#F3F4F6"/>
  
  <!-- Chart Elements -->
  <rect x="270" y="220" width="10" height="40" fill="#2563EB" opacity="0.8"/>
  <rect x="290" y="230" width="10" height="30" fill="#2563EB" opacity="0.8"/>
  <rect x="310" y="210" width="10" height="50" fill="#2563EB" opacity="0.8"/>
  <rect x="330" y="240" width="10" height="20" fill="#2563EB" opacity="0.8"/>
  <rect x="350" y="225" width="10" height="35" fill="#2563EB" opacity="0.8"/>
  
  <!-- Pie Chart -->
  <path d="M460 240 L460 200 A40 40 0 0 1 495 225 Z" fill="#2563EB"/>
  <path d="M460 240 L495 225 A40 40 0 0 1 475 275 Z" fill="#7C3AED"/>
  <path d="M460 240 L475 275 A40 40 0 0 1 420 260 Z" fill="#10B981"/>
  <path d="M460 240 L420 260 A40 40 0 0 1 460 200 Z" fill="#F59E0B"/>
  
  <!-- Data Points -->
  <circle cx="270" y="310" r="3" fill="#2563EB"/>
  <circle cx="290" y="320" r="3" fill="#2563EB"/>
  <circle cx="310" y="305" r="3" fill="#2563EB"/>
  <circle cx="330" y="315" r="3" fill="#2563EB"/>
  <circle cx="350" y="310" r="3" fill="#2563EB"/>
  <circle cx="370" y="325" r="3" fill="#2563EB"/>
  <circle cx="390" y="300" r="3" fill="#2563EB"/>
  <circle cx="410" y="320" r="3" fill="#2563EB"/>
  <circle cx="430" y="310" r="3" fill="#2563EB"/>
  <circle cx="450" y="305" r="3" fill="#2563EB"/>
  <circle cx="470" y="315" r="3" fill="#2563EB"/>
  <circle cx="490" y="310" r="3" fill="#2563EB"/>
  <circle cx="510" y="320" r="3" fill="#2563EB"/>
  <circle cx="530" y="305" r="3" fill="#2563EB"/>
  
  <!-- Line connecting data points -->
  <path d="M270 310 L290 320 L310 305 L330 315 L350 310 L370 325 L390 300 L410 320 L430 310 L450 305 L470 315 L490 310 L510 320 L530 305" stroke="#2563EB" stroke-width="2" fill="none"/>
  
  <!-- Document Icons -->
  <rect x="150" y="350" width="40" height="50" rx="3" fill="white" stroke="#E5E7EB" stroke-width="2"/>
  <line x1="160" y1="360" x2="180" y2="360" stroke="#9CA3AF" stroke-width="2"/>
  <line x1="160" y1="370" x2="180" y2="370" stroke="#9CA3AF" stroke-width="2"/>
  <line x1="160" y1="380" x2="180" y2="380" stroke="#9CA3AF" stroke-width="2"/>
  
  <rect x="610" y="350" width="40" height="50" rx="3" fill="white" stroke="#E5E7EB" stroke-width="2"/>
  <line x1="620" y1="360" x2="640" y2="360" stroke="#9CA3AF" stroke-width="2"/>
  <line x1="620" y1="370" x2="640" y2="370" stroke="#9CA3AF" stroke-width="2"/>
  <line x1="620" y1="380" x2="640" y2="380" stroke="#9CA3AF" stroke-width="2"/>
  
  <!-- Dollar Signs -->
  <text x="150" y="450" font-family="Arial" font-size="24" font-weight="bold" fill="#10B981">$</text>
  <text x="610" y="450" font-family="Arial" font-size="24" font-weight="bold" fill="#10B981">$</text>
  
  <!-- Decorative Elements -->
  <circle cx="200" cy="150" r="10" fill="#2563EB" opacity="0.3"/>
  <circle cx="600" cy="150" r="15" fill="#7C3AED" opacity="0.3"/>
  <circle cx="150" cy="250" r="8" fill="#10B981" opacity="0.3"/>
  <circle cx="650" cy="250" r="12" fill="#F59E0B" opacity="0.3"/>
  <circle cx="180" cy="450" r="10" fill="#2563EB" opacity="0.3"/>
  <circle cx="580" cy="450" r="15" fill="#7C3AED" opacity="0.3"/>
</svg>